<svg xmlns="http://www.w3.org/2000/svg" xmlns:xlink="http://www.w3.org/1999/xlink" width="410" zoomAndPan="magnify" viewBox="0 0 307.5 62.249996" height="83" preserveAspectRatio="xMidYMid meet" version="1.0"><defs><g/><clipPath id="e8993f6620"><path d="M 1.582031 0 L 50.492188 0 L 50.492188 60.769531 L 1.582031 60.769531 Z M 1.582031 0 " clip-rule="nonzero"/></clipPath></defs><g clip-path="url(#e8993f6620)"><path fill="#faf8f5" d="M 48.132812 0 L 3.949219 0 C 2.683594 0 1.683594 1 1.683594 2.265625 L 1.683594 58.773438 C 1.683594 60.039062 2.683594 61.039062 3.949219 61.039062 L 48.132812 61.039062 C 49.398438 61.039062 50.398438 60.039062 50.398438 58.773438 L 50.398438 2.265625 C 50.453125 1 49.398438 0 48.132812 0 Z M 10.269531 1.949219 L 19.746094 1.949219 L 19.746094 4.425781 C 19.746094 4.949219 20.167969 5.425781 20.75 5.425781 C 21.328125 5.425781 21.695312 5.003906 21.695312 4.476562 L 21.695312 1.949219 L 30.4375 1.949219 L 30.4375 4.425781 C 30.4375 4.949219 30.859375 5.425781 31.441406 5.425781 C 31.964844 5.425781 32.441406 5.003906 32.441406 4.425781 L 32.441406 1.949219 L 42.128906 1.949219 L 42.128906 6.6875 C 42.128906 6.847656 42.078125 7.003906 41.921875 7.058594 L 39.234375 8.742188 C 39.128906 8.796875 38.972656 8.847656 38.8125 8.796875 L 33.808594 6.792969 C 33.230469 6.582031 32.597656 6.582031 32.019531 6.792969 L 26.859375 8.847656 C 26.753906 8.902344 26.648438 8.902344 26.488281 8.847656 L 21.960938 6.847656 C 21.378906 6.582031 20.695312 6.582031 20.0625 6.847656 L 15.058594 8.902344 C 14.957031 8.953125 14.796875 8.953125 14.691406 8.902344 L 10.480469 7.003906 C 10.320312 6.953125 10.214844 6.792969 10.214844 6.582031 L 10.214844 1.949219 Z M 48.449219 58.828125 C 48.449219 58.984375 48.292969 59.144531 48.132812 59.144531 L 3.949219 59.144531 C 3.789062 59.144531 3.632812 58.984375 3.632812 58.828125 L 3.632812 2.265625 C 3.632812 2.105469 3.789062 1.949219 3.949219 1.949219 L 8.265625 1.949219 L 8.265625 6.582031 C 8.265625 7.53125 8.847656 8.375 9.6875 8.796875 L 13.902344 10.691406 C 14.480469 10.953125 15.164062 10.953125 15.796875 10.742188 L 20.800781 8.691406 C 20.90625 8.636719 21.0625 8.636719 21.167969 8.691406 L 25.699219 10.691406 C 26.015625 10.847656 26.332031 10.902344 26.648438 10.902344 C 26.964844 10.902344 27.277344 10.847656 27.542969 10.742188 L 32.703125 8.691406 C 32.808594 8.636719 32.914062 8.636719 33.019531 8.691406 L 38.023438 10.691406 C 38.761719 10.953125 39.550781 10.902344 40.183594 10.480469 L 42.867188 8.796875 C 43.550781 8.375 43.972656 7.582031 43.972656 6.742188 L 43.972656 2 L 48.082031 2 C 48.238281 2 48.398438 2.160156 48.398438 2.316406 L 48.398438 58.828125 Z M 48.449219 58.828125 " fill-opacity="1" fill-rule="nonzero"/></g><path fill="#faf8f5" d="M 15.851562 14.695312 L 10.582031 14.695312 C 9.320312 14.695312 8.320312 15.695312 8.320312 16.957031 L 8.320312 22.226562 C 8.320312 23.488281 9.320312 24.488281 10.582031 24.488281 L 15.851562 24.488281 C 17.113281 24.488281 18.113281 23.488281 18.113281 22.226562 L 18.113281 16.957031 C 18.167969 15.695312 17.113281 14.695312 15.851562 14.695312 Z M 16.167969 22.226562 C 16.167969 22.382812 16.007812 22.539062 15.851562 22.539062 L 10.582031 22.539062 C 10.425781 22.539062 10.269531 22.382812 10.269531 22.226562 L 10.269531 16.957031 C 10.269531 16.800781 10.425781 16.640625 10.582031 16.640625 L 15.851562 16.640625 C 16.007812 16.640625 16.167969 16.800781 16.167969 16.957031 Z M 16.167969 22.226562 " fill-opacity="1" fill-rule="nonzero"/><path fill="#faf8f5" d="M 15.851562 29.914062 L 10.582031 29.914062 C 9.320312 29.914062 8.320312 30.914062 8.320312 32.179688 L 8.320312 37.445312 C 8.320312 38.710938 9.320312 39.710938 10.582031 39.710938 L 15.851562 39.710938 C 17.113281 39.710938 18.113281 38.710938 18.113281 37.445312 L 18.113281 32.179688 C 18.167969 30.914062 17.113281 29.914062 15.851562 29.914062 Z M 16.167969 37.445312 C 16.167969 37.601562 16.007812 37.761719 15.851562 37.761719 L 10.582031 37.761719 C 10.425781 37.761719 10.269531 37.601562 10.269531 37.445312 L 10.269531 32.179688 C 10.269531 32.019531 10.425781 31.863281 10.582031 31.863281 L 15.851562 31.863281 C 16.007812 31.863281 16.167969 32.019531 16.167969 32.179688 Z M 16.167969 37.445312 " fill-opacity="1" fill-rule="nonzero"/><path fill="#faf8f5" d="M 15.851562 45.132812 L 10.582031 45.132812 C 9.320312 45.132812 8.320312 46.136719 8.320312 47.398438 L 8.320312 52.664062 C 8.320312 53.929688 9.320312 54.929688 10.582031 54.929688 L 15.851562 54.929688 C 17.113281 54.929688 18.113281 53.929688 18.113281 52.664062 L 18.113281 47.398438 C 18.167969 46.136719 17.113281 45.132812 15.851562 45.132812 Z M 16.167969 52.664062 C 16.167969 52.824219 16.007812 52.980469 15.851562 52.980469 L 10.582031 52.980469 C 10.425781 52.980469 10.269531 52.824219 10.269531 52.664062 L 10.269531 47.398438 C 10.269531 47.242188 10.425781 47.082031 10.582031 47.082031 L 15.851562 47.082031 C 16.007812 47.082031 16.167969 47.242188 16.167969 47.398438 Z M 16.167969 52.664062 " fill-opacity="1" fill-rule="nonzero"/><path fill="#faf8f5" d="M 41.023438 18.589844 L 21.695312 18.589844 C 21.167969 18.589844 20.695312 19.011719 20.695312 19.589844 C 20.695312 20.171875 21.117188 20.59375 21.695312 20.59375 L 41.023438 20.59375 C 41.550781 20.59375 42.023438 20.171875 42.023438 19.589844 C 42.023438 19.011719 41.550781 18.589844 41.023438 18.589844 Z M 41.023438 18.589844 " fill-opacity="1" fill-rule="nonzero"/><path fill="#faf8f5" d="M 41.023438 33.863281 L 21.695312 33.863281 C 21.167969 33.863281 20.695312 34.285156 20.695312 34.863281 C 20.695312 35.445312 21.167969 35.8125 21.695312 35.8125 L 41.023438 35.8125 C 41.550781 35.8125 42.023438 35.390625 42.023438 34.8125 C 42.023438 34.234375 41.550781 33.863281 41.023438 33.863281 Z M 41.023438 33.863281 " fill-opacity="1" fill-rule="nonzero"/><path fill="#faf8f5" d="M 41.023438 49.085938 L 21.695312 49.085938 C 21.167969 49.085938 20.695312 49.503906 20.695312 50.085938 C 20.695312 50.613281 21.117188 51.085938 21.695312 51.085938 L 41.023438 51.085938 C 41.550781 51.085938 42.023438 50.664062 42.023438 50.085938 C 41.972656 49.503906 41.550781 49.085938 41.023438 49.085938 Z M 41.023438 49.085938 " fill-opacity="1" fill-rule="nonzero"/><path fill="#faf8f5" d="M 14.007812 18.0625 L 12.796875 19.277344 L 12.214844 18.90625 C 11.742188 18.644531 11.164062 18.75 10.847656 19.222656 C 10.582031 19.695312 10.6875 20.277344 11.164062 20.59375 L 12.214844 21.222656 C 12.425781 21.328125 12.636719 21.433594 12.902344 21.433594 C 13.21875 21.433594 13.535156 21.328125 13.796875 21.066406 L 15.375 19.484375 C 15.746094 19.117188 15.746094 18.484375 15.375 18.117188 C 15.007812 17.695312 14.375 17.695312 14.007812 18.0625 Z M 14.007812 18.0625 " fill-opacity="1" fill-rule="nonzero"/><path fill="#faf8f5" d="M 14.007812 33.285156 L 12.796875 34.496094 L 12.214844 34.128906 C 11.742188 33.863281 11.164062 33.96875 10.847656 34.441406 C 10.582031 34.917969 10.6875 35.496094 11.164062 35.8125 L 12.214844 36.445312 C 12.425781 36.550781 12.636719 36.65625 12.902344 36.65625 C 13.21875 36.65625 13.535156 36.550781 13.796875 36.285156 L 15.375 34.707031 C 15.746094 34.339844 15.746094 33.707031 15.375 33.335938 C 15.007812 32.914062 14.375 32.914062 14.007812 33.285156 Z M 14.007812 33.285156 " fill-opacity="1" fill-rule="nonzero"/><path fill="#faf8f5" d="M 14.007812 48.503906 L 12.796875 49.714844 L 12.214844 49.347656 C 11.742188 49.085938 11.164062 49.191406 10.847656 49.664062 C 10.582031 50.136719 10.6875 50.71875 11.164062 51.03125 L 12.214844 51.664062 C 12.425781 51.769531 12.636719 51.875 12.902344 51.875 C 13.21875 51.875 13.535156 51.769531 13.796875 51.507812 L 15.375 49.925781 C 15.746094 49.558594 15.746094 48.925781 15.375 48.558594 C 15.007812 48.136719 14.375 48.136719 14.007812 48.503906 Z M 14.007812 48.503906 " fill-opacity="1" fill-rule="nonzero"/><g fill="#faf8f5" fill-opacity="1"><g transform="translate(54.404825, 37.749542)"><g><path d="M 4.40625 -14.78125 L 4.40625 0 L 1.28125 0 L 1.28125 -14.78125 Z M 4.40625 -14.78125 "/></g></g></g><g fill="#faf8f5" fill-opacity="1"><g transform="translate(64.621078, 37.749542)"><g><path d="M 1.28125 -14.78125 L 5.140625 -14.78125 L 9.21875 -4.84375 L 9.390625 -4.84375 L 13.453125 -14.78125 L 17.3125 -14.78125 L 17.3125 0 L 14.28125 0 L 14.28125 -9.625 L 14.15625 -9.625 L 10.328125 -0.078125 L 8.265625 -0.078125 L 4.4375 -9.65625 L 4.3125 -9.65625 L 4.3125 0 L 1.28125 0 Z M 1.28125 -14.78125 "/></g></g></g><g fill="#faf8f5" fill-opacity="1"><g transform="translate(87.916153, 37.749542)"><g><path d="M 1.28125 0 L 1.28125 -14.78125 L 7.125 -14.78125 C 8.238281 -14.78125 9.191406 -14.566406 9.984375 -14.140625 C 10.773438 -13.710938 11.378906 -13.125 11.796875 -12.375 C 12.210938 -11.625 12.421875 -10.757812 12.421875 -9.78125 C 12.421875 -8.789062 12.207031 -7.921875 11.78125 -7.171875 C 11.351562 -6.429688 10.738281 -5.847656 9.9375 -5.421875 C 9.132812 -5.003906 8.164062 -4.796875 7.03125 -4.796875 L 4.40625 -4.796875 L 4.40625 0 Z M 4.40625 -7.296875 L 6.53125 -7.296875 C 7.425781 -7.296875 8.09375 -7.523438 8.53125 -7.984375 C 8.976562 -8.441406 9.203125 -9.039062 9.203125 -9.78125 C 9.203125 -10.507812 8.976562 -11.097656 8.53125 -11.546875 C 8.09375 -12.003906 7.421875 -12.234375 6.515625 -12.234375 L 4.40625 -12.234375 Z M 4.40625 -7.296875 "/></g></g></g><g fill="#faf8f5" fill-opacity="1"><g transform="translate(105.595713, 37.749542)"><g><path d="M 1.28125 0 L 1.28125 -14.78125 L 7.125 -14.78125 C 8.800781 -14.78125 10.101562 -14.34375 11.03125 -13.46875 C 11.957031 -12.59375 12.421875 -11.421875 12.421875 -9.953125 C 12.421875 -8.941406 12.191406 -8.078125 11.734375 -7.359375 C 11.285156 -6.640625 10.640625 -6.101562 9.796875 -5.75 L 12.9375 0 L 9.5 0 L 6.6875 -5.234375 L 4.40625 -5.234375 L 4.40625 0 Z M 4.40625 -7.75 L 6.53125 -7.75 C 8.3125 -7.75 9.203125 -8.484375 9.203125 -9.953125 C 9.203125 -11.472656 8.304688 -12.234375 6.515625 -12.234375 L 4.40625 -12.234375 Z M 4.40625 -7.75 "/></g></g></g><g fill="#faf8f5" fill-opacity="1"><g transform="translate(123.448498, 37.749542)"><g><path d="M 14.875 -7.390625 C 14.875 -5.773438 14.566406 -4.398438 13.953125 -3.265625 C 13.347656 -2.140625 12.519531 -1.28125 11.46875 -0.6875 C 10.425781 -0.09375 9.253906 0.203125 7.953125 0.203125 C 6.640625 0.203125 5.457031 -0.09375 4.40625 -0.6875 C 3.363281 -1.289062 2.539062 -2.15625 1.9375 -3.28125 C 1.332031 -4.414062 1.03125 -5.785156 1.03125 -7.390625 C 1.03125 -9.003906 1.332031 -10.375 1.9375 -11.5 C 2.539062 -12.632812 3.363281 -13.5 4.40625 -14.09375 C 5.457031 -14.6875 6.640625 -14.984375 7.953125 -14.984375 C 9.253906 -14.984375 10.425781 -14.6875 11.46875 -14.09375 C 12.519531 -13.5 13.347656 -12.632812 13.953125 -11.5 C 14.566406 -10.375 14.875 -9.003906 14.875 -7.390625 Z M 11.703125 -7.390625 C 11.703125 -8.960938 11.359375 -10.160156 10.671875 -10.984375 C 9.992188 -11.804688 9.085938 -12.21875 7.953125 -12.21875 C 6.816406 -12.21875 5.90625 -11.804688 5.21875 -10.984375 C 4.53125 -10.160156 4.1875 -8.960938 4.1875 -7.390625 C 4.1875 -5.828125 4.53125 -4.628906 5.21875 -3.796875 C 5.90625 -2.972656 6.816406 -2.5625 7.953125 -2.5625 C 9.085938 -2.5625 9.992188 -2.972656 10.671875 -3.796875 C 11.359375 -4.628906 11.703125 -5.828125 11.703125 -7.390625 Z M 11.703125 -7.390625 "/></g></g></g><g fill="#faf8f5" fill-opacity="1"><g transform="translate(143.856419, 37.749542)"><g><path d="M 3.953125 -14.78125 L 7.53125 -3.546875 L 7.671875 -3.546875 L 11.25 -14.78125 L 14.71875 -14.78125 L 9.609375 0 L 5.59375 0 L 0.484375 -14.78125 Z M 3.953125 -14.78125 "/></g></g></g><g fill="#faf8f5" fill-opacity="1"><g transform="translate(163.571418, 37.749542)"><g><path d="M 1.28125 0 L 1.28125 -14.78125 L 11.25 -14.78125 L 11.25 -12.203125 L 4.40625 -12.203125 L 4.40625 -8.6875 L 10.734375 -8.6875 L 10.734375 -6.109375 L 4.40625 -6.109375 L 4.40625 -2.578125 L 11.28125 -2.578125 L 11.28125 0 Z M 1.28125 0 "/></g></g></g><g fill="#faf8f5" fill-opacity="1"><g transform="translate(180.536399, 37.749542)"><g/></g></g><g fill="#faf8f5" fill-opacity="1"><g transform="translate(189.763799, 37.749542)"><g><path d="M 0.71875 -12.203125 L 0.71875 -14.78125 L 12.859375 -14.78125 L 12.859375 -12.203125 L 8.34375 -12.203125 L 8.34375 0 L 5.25 0 L 5.25 -12.203125 Z M 0.71875 -12.203125 "/></g></g></g><g fill="#faf8f5" fill-opacity="1"><g transform="translate(207.861995, 37.749542)"><g><path d="M 3.828125 0 L 0.484375 0 L 5.59375 -14.78125 L 9.609375 -14.78125 L 14.71875 0 L 11.359375 0 L 10.265625 -3.375 L 4.9375 -3.375 Z M 5.71875 -5.8125 L 9.484375 -5.8125 L 7.65625 -11.40625 L 7.546875 -11.40625 Z M 5.71875 -5.8125 "/></g></g></g><g fill="#faf8f5" fill-opacity="1"><g transform="translate(227.576993, 37.749542)"><g><path d="M 9.3125 -10.53125 C 9.25 -11.113281 8.992188 -11.566406 8.546875 -11.890625 C 8.109375 -12.210938 7.519531 -12.375 6.78125 -12.375 C 6.007812 -12.375 5.421875 -12.21875 5.015625 -11.90625 C 4.609375 -11.59375 4.40625 -11.195312 4.40625 -10.71875 C 4.394531 -10.1875 4.617188 -9.785156 5.078125 -9.515625 C 5.546875 -9.242188 6.101562 -9.035156 6.75 -8.890625 L 8.078125 -8.5625 C 8.929688 -8.375 9.691406 -8.097656 10.359375 -7.734375 C 11.023438 -7.367188 11.546875 -6.894531 11.921875 -6.3125 C 12.304688 -5.738281 12.5 -5.039062 12.5 -4.21875 C 12.5 -2.863281 11.992188 -1.785156 10.984375 -0.984375 C 9.972656 -0.191406 8.566406 0.203125 6.765625 0.203125 C 4.972656 0.203125 3.539062 -0.203125 2.46875 -1.015625 C 1.394531 -1.835938 0.84375 -3.046875 0.8125 -4.640625 L 3.828125 -4.640625 C 3.878906 -3.898438 4.171875 -3.34375 4.703125 -2.96875 C 5.242188 -2.59375 5.921875 -2.40625 6.734375 -2.40625 C 7.523438 -2.40625 8.15625 -2.570312 8.625 -2.90625 C 9.101562 -3.25 9.34375 -3.691406 9.34375 -4.234375 C 9.34375 -4.734375 9.125 -5.117188 8.6875 -5.390625 C 8.257812 -5.660156 7.644531 -5.890625 6.84375 -6.078125 L 5.21875 -6.484375 C 3.976562 -6.785156 2.992188 -7.257812 2.265625 -7.90625 C 1.546875 -8.550781 1.191406 -9.421875 1.203125 -10.515625 C 1.191406 -11.410156 1.425781 -12.191406 1.90625 -12.859375 C 2.394531 -13.535156 3.0625 -14.054688 3.90625 -14.421875 C 4.757812 -14.796875 5.722656 -14.984375 6.796875 -14.984375 C 7.898438 -14.984375 8.859375 -14.796875 9.671875 -14.421875 C 10.492188 -14.046875 11.132812 -13.523438 11.59375 -12.859375 C 12.050781 -12.191406 12.285156 -11.414062 12.296875 -10.53125 Z M 9.3125 -10.53125 "/></g></g></g><g fill="#faf8f5" fill-opacity="1"><g transform="translate(245.400901, 37.749542)"><g><path d="M 1.28125 0 L 1.28125 -14.78125 L 4.40625 -14.78125 L 4.40625 -8.265625 L 4.609375 -8.265625 L 9.921875 -14.78125 L 13.671875 -14.78125 L 8.1875 -8.171875 L 13.734375 0 L 10 0 L 5.953125 -6.078125 L 4.40625 -4.203125 L 4.40625 0 Z M 1.28125 0 "/></g></g></g><g fill="#faf8f5" fill-opacity="1"><g transform="translate(263.932154, 37.749542)"><g><path d="M 1.28125 0 L 1.28125 -14.78125 L 11.25 -14.78125 L 11.25 -12.203125 L 4.40625 -12.203125 L 4.40625 -8.6875 L 10.734375 -8.6875 L 10.734375 -6.109375 L 4.40625 -6.109375 L 4.40625 -2.578125 L 11.28125 -2.578125 L 11.28125 0 Z M 1.28125 0 "/></g></g></g><g fill="#faf8f5" fill-opacity="1"><g transform="translate(280.897136, 37.749542)"><g><path d="M 1.28125 0 L 1.28125 -14.78125 L 7.125 -14.78125 C 8.800781 -14.78125 10.101562 -14.34375 11.03125 -13.46875 C 11.957031 -12.59375 12.421875 -11.421875 12.421875 -9.953125 C 12.421875 -8.941406 12.191406 -8.078125 11.734375 -7.359375 C 11.285156 -6.640625 10.640625 -6.101562 9.796875 -5.75 L 12.9375 0 L 9.5 0 L 6.6875 -5.234375 L 4.40625 -5.234375 L 4.40625 0 Z M 4.40625 -7.75 L 6.53125 -7.75 C 8.3125 -7.75 9.203125 -8.484375 9.203125 -9.953125 C 9.203125 -11.472656 8.304688 -12.234375 6.515625 -12.234375 L 4.40625 -12.234375 Z M 4.40625 -7.75 "/></g></g></g></svg>